<svg width="516" height="481" viewBox="0 0 516 481" fill="none" xmlns="http://www.w3.org/2000/svg">
<g filter="url(#filter0_d_127_12)">
<rect x="103" y="38" width="393" height="423" rx="12" fill="url(#paint0_linear_127_12)"/>
</g>
<path d="M315.758 437.569C316.908 437.772 317.998 436.968 318.195 435.772L318.195 435.771L318.197 435.759C318.2 435.744 318.205 435.717 318.212 435.679C318.227 435.603 318.251 435.482 318.285 435.325C318.355 435.009 318.467 434.546 318.633 433.986C318.968 432.857 319.508 431.374 320.33 429.911C321.973 426.987 324.562 424.4 328.789 424.4C333.188 424.4 336.59 427.126 340.675 430.52L340.893 430.701C343.029 432.476 345.377 434.428 348.084 435.801C350.21 436.878 352.556 437.6 355.196 437.6C357.824 437.6 360.162 436.885 362.28 435.815C364.999 434.441 367.356 432.482 369.5 430.701L369.717 430.52C373.803 427.126 377.204 424.4 381.604 424.4C386.003 424.4 389.405 427.126 393.49 430.52L393.708 430.701C395.872 432.499 398.253 434.478 401.005 435.854C403.102 436.902 405.415 437.6 408.011 437.6C410.596 437.6 412.9 436.908 414.99 435.868C417.754 434.492 420.144 432.505 422.315 430.701L422.533 430.52C426.618 427.126 430.019 424.4 434.419 424.4C438.678 424.4 441.477 427.026 443.324 429.996C444.243 431.474 444.877 432.968 445.281 434.103C445.482 434.666 445.623 435.132 445.712 435.449C445.756 435.608 445.788 435.729 445.807 435.806C445.816 435.845 445.823 435.872 445.827 435.888L445.829 435.899L445.83 435.901L445.83 435.902L445.83 435.903C446.096 437.084 447.231 437.818 448.366 437.543C449.502 437.267 450.209 436.084 449.945 434.901L447.887 435.4C449.945 434.901 449.944 434.9 449.944 434.899L449.944 434.897L449.942 434.892L449.939 434.878L449.929 434.836C449.921 434.802 449.91 434.755 449.896 434.697C449.867 434.581 449.824 434.418 449.767 434.216C449.654 433.812 449.482 433.246 449.242 432.572C448.764 431.231 448.003 429.426 446.87 427.604C444.612 423.974 440.677 420 434.419 420C428.416 420 423.929 423.73 420.116 426.899L419.898 427.08C415.813 430.474 412.411 433.2 408.011 433.2C403.612 433.2 400.21 430.474 396.125 427.08L395.907 426.899C392.094 423.73 387.607 420 381.604 420C375.601 420 371.114 423.73 367.3 426.899L367.083 427.08C362.997 430.474 359.596 433.2 355.196 433.2C350.797 433.2 347.395 430.474 343.31 427.08L343.092 426.899C339.279 423.73 334.791 420 328.789 420C322.498 420 318.749 424.013 316.683 427.689C315.651 429.526 314.995 431.343 314.596 432.689C314.395 433.366 314.257 433.934 314.167 434.34C314.122 434.544 314.09 434.707 314.067 434.824C314.056 434.883 314.048 434.93 314.042 434.965L314.034 435.007L314.032 435.021L314.031 435.027L314.031 435.029C314.03 435.03 314.03 435.031 316.113 435.4L314.03 435.031C313.834 436.228 314.608 437.365 315.758 437.569Z" fill="#FFBFED"/>
<path d="M318.195 454.472C317.998 455.668 316.908 456.472 315.758 456.268C314.608 456.064 313.834 454.928 314.03 453.73L316.113 454.1C314.03 453.73 314.03 453.729 314.031 453.729L314.031 453.726L314.032 453.721L314.034 453.707L314.042 453.664C314.048 453.63 314.056 453.583 314.067 453.524C314.09 453.407 314.122 453.244 314.167 453.04C314.257 452.634 314.395 452.066 314.596 451.389C314.995 450.042 315.651 448.226 316.683 446.389C318.749 442.713 322.498 438.7 328.789 438.7C334.791 438.7 339.279 442.43 343.092 445.599L343.31 445.78C347.395 449.173 350.797 451.9 355.196 451.9C359.596 451.9 362.997 449.173 367.083 445.78L367.3 445.599C371.114 442.43 375.601 438.7 381.604 438.7C387.607 438.7 392.094 442.43 395.907 445.599L396.125 445.78C400.21 449.173 403.612 451.9 408.011 451.9C412.411 451.9 415.813 449.173 419.898 445.78L420.116 445.599C423.929 442.43 428.416 438.7 434.419 438.7C440.677 438.7 444.612 442.673 446.87 446.304C448.003 448.126 448.764 449.931 449.242 451.272C449.482 451.946 449.654 452.511 449.767 452.916C449.824 453.118 449.867 453.281 449.896 453.397C449.91 453.455 449.921 453.502 449.929 453.536L449.939 453.578L449.942 453.592L449.944 453.597L449.944 453.599C449.944 453.6 449.945 453.601 447.887 454.1L449.945 453.601C450.209 454.784 449.502 455.967 448.366 456.242C447.231 456.518 446.096 455.784 445.83 454.603L445.83 454.602L445.83 454.601L445.829 454.598L445.827 454.588C445.823 454.572 445.816 454.544 445.807 454.506C445.788 454.429 445.756 454.308 445.712 454.149C445.623 453.832 445.482 453.366 445.281 452.803C444.877 451.668 444.243 450.173 443.324 448.696C441.477 445.726 438.678 443.1 434.419 443.1C430.019 443.1 426.618 445.826 422.533 449.22L422.315 449.401C420.144 451.205 417.754 453.192 414.99 454.568C412.9 455.608 410.596 456.3 408.011 456.3C405.415 456.3 403.102 455.602 401.005 454.554C398.253 453.178 395.872 451.199 393.708 449.401L393.49 449.22C389.405 445.826 386.003 443.1 381.604 443.1C377.204 443.1 373.803 445.826 369.717 449.22L369.5 449.401C367.356 451.182 364.999 453.141 362.28 454.515C360.162 455.585 357.824 456.3 355.196 456.3C352.556 456.3 350.21 455.578 348.084 454.501C345.377 453.128 343.029 451.176 340.893 449.401L340.675 449.22C336.59 445.826 333.188 443.1 328.789 443.1C324.562 443.1 321.973 445.687 320.33 448.611C319.508 450.074 318.968 451.557 318.633 452.686C318.467 453.246 318.355 453.709 318.285 454.025C318.251 454.182 318.227 454.302 318.212 454.379C318.205 454.417 318.2 454.444 318.197 454.459L318.195 454.471L318.195 454.472Z" fill="#FFBFED"/>
<path d="M318.195 473.17L318.195 473.171C317.998 474.368 316.908 475.172 315.758 474.968C314.608 474.764 313.834 473.628 314.03 472.43L316.113 472.8C314.03 472.43 314.03 472.429 314.031 472.428L314.031 472.426L314.032 472.421L314.034 472.407L314.042 472.364C314.048 472.33 314.056 472.283 314.067 472.224C314.09 472.107 314.122 471.944 314.167 471.74C314.257 471.334 314.395 470.765 314.596 470.088C314.995 468.742 315.651 466.925 316.683 465.089C318.749 461.412 322.498 457.4 328.789 457.4C334.791 457.4 339.279 461.129 343.092 464.299L343.31 464.48C347.395 467.873 350.797 470.6 355.196 470.6C359.596 470.6 362.997 467.873 367.083 464.48L367.3 464.299C371.114 461.129 375.601 457.4 381.604 457.4C387.607 457.4 392.094 461.129 395.907 464.299L396.125 464.48C400.21 467.873 403.612 470.6 408.011 470.6C412.411 470.6 415.813 467.873 419.898 464.48L420.116 464.299C423.929 461.129 428.416 457.4 434.419 457.4C440.677 457.4 444.612 461.373 446.87 465.004C448.003 466.826 448.764 468.631 449.242 469.972C449.482 470.646 449.654 471.211 449.767 471.616C449.824 471.818 449.867 471.981 449.896 472.097C449.91 472.155 449.921 472.202 449.929 472.236L449.939 472.278L449.942 472.292L449.944 472.297L449.944 472.299C449.944 472.3 449.945 472.301 447.887 472.8L449.945 472.301C450.209 473.484 449.502 474.667 448.366 474.942C447.231 475.217 446.096 474.483 445.83 473.302L445.83 473.302L445.83 473.301L445.829 473.298L445.827 473.288C445.825 473.28 445.823 473.271 445.82 473.259C445.816 473.245 445.812 473.227 445.807 473.206C445.788 473.129 445.756 473.008 445.712 472.849C445.623 472.532 445.482 472.066 445.281 471.502C444.877 470.368 444.243 468.873 443.324 467.395C441.477 464.426 438.678 461.8 434.419 461.8C430.019 461.8 426.618 464.526 422.533 467.919L422.315 468.1C420.144 469.905 417.754 471.891 414.99 473.267C412.9 474.308 410.596 475 408.011 475C405.415 475 403.102 474.302 401.005 473.253C398.253 471.878 395.872 469.899 393.708 468.1L393.49 467.919C389.405 464.526 386.003 461.8 381.604 461.8C377.204 461.8 373.803 464.526 369.717 467.919L369.5 468.1C367.356 469.882 364.999 471.841 362.28 473.215C360.162 474.285 357.824 475 355.196 475C352.556 475 350.21 474.278 348.084 473.2C345.377 471.827 343.029 469.876 340.893 468.1L340.675 467.919C336.59 464.526 333.188 461.8 328.789 461.8C324.562 461.8 321.973 464.387 320.33 467.311C319.508 468.774 318.968 470.257 318.633 471.386C318.467 471.946 318.355 472.409 318.285 472.725C318.251 472.882 318.227 473.002 318.212 473.078C318.205 473.117 318.2 473.144 318.197 473.159L318.195 473.17Z" fill="#FFBFED"/>
<path d="M1.75829 17.5686C2.90759 17.7724 3.99799 16.9682 4.19511 15.772L4.19532 15.7708L4.19731 15.7594C4.20002 15.7441 4.2049 15.717 4.21215 15.6788C4.22666 15.6025 4.25056 15.4824 4.28529 15.3249C4.35486 15.0093 4.46717 14.5465 4.63324 13.9861C4.96776 12.8572 5.50812 11.3741 6.33027 9.911C7.97324 6.98708 10.5618 4.39996 14.7886 4.39996C19.1882 4.39996 22.5897 7.12623 26.675 10.5198L26.8928 10.7007C29.029 12.4763 31.3769 14.4277 34.0843 15.8007C36.2095 16.8785 38.5563 17.5998 41.1962 17.5998C43.8244 17.5998 46.1622 16.8848 48.28 15.8149C50.9993 14.4412 53.356 12.4824 55.4996 10.7007L55.7174 10.5198C59.8027 7.12623 63.2042 4.39996 67.6038 4.39996C72.0034 4.39996 75.405 7.12623 79.4902 10.5198L79.708 10.7007C81.8719 12.4992 84.2529 14.4783 87.0048 15.8537C89.1022 16.9021 91.4151 17.5998 94.0114 17.5998C96.5962 17.5998 98.8999 16.9083 100.99 15.8678C103.754 14.4917 106.144 12.5054 108.315 10.7007L108.533 10.5198C112.618 7.12623 116.019 4.39996 120.419 4.39996C124.678 4.39996 127.477 7.02629 129.324 9.99583C130.243 11.4736 130.877 12.9684 131.281 14.1028C131.482 14.6664 131.623 15.1319 131.712 15.4494C131.756 15.608 131.788 15.729 131.807 15.8061C131.816 15.8447 131.823 15.8722 131.827 15.8879L131.829 15.8987L131.83 15.901L131.83 15.902L131.83 15.9028C132.096 17.0837 133.231 17.8177 134.366 17.5425C135.502 17.2671 136.209 16.0844 135.945 14.9011L133.887 15.3999C135.945 14.9011 135.944 14.9002 135.944 14.8993L135.944 14.8971L135.942 14.892L135.939 14.8781L135.929 14.8361C135.921 14.8019 135.91 14.7553 135.896 14.6971C135.867 14.5809 135.824 14.4183 135.767 14.2159C135.654 13.8116 135.482 13.2459 135.242 12.572C134.764 11.2314 134.003 9.42617 132.87 7.60401C130.612 3.97361 126.677 0 120.419 0C114.416 0 109.929 3.72983 106.116 6.89912L105.898 7.08008C101.813 10.4736 98.411 13.1999 94.0114 13.1999C89.6118 13.1999 86.2103 10.4736 82.125 7.08008L81.9073 6.89912C78.0941 3.72983 73.6066 0 67.6038 0C61.601 0 57.1135 3.72982 53.3004 6.89912L53.0826 7.08008C48.9973 10.4736 45.5958 13.1999 41.1962 13.1999C36.7966 13.1999 33.3951 10.4736 29.3098 7.08008L29.092 6.89912C25.2789 3.72982 20.7914 0 14.7886 0C8.49836 0 4.74908 4.01283 2.6835 7.68885C1.65136 9.52568 0.994752 11.3426 0.595875 12.6887C0.395245 13.3658 0.256751 13.9342 0.16719 14.3405C0.122351 14.5439 0.0896102 14.7074 0.0673618 14.8244C0.0562331 14.883 0.047716 14.9299 0.0416119 14.9646L0.0342358 15.0071L0.0318554 15.0212L0.0309839 15.0265L0.0306266 15.0287C0.0304697 15.0296 0.0303215 15.0305 2.11295 15.3999L0.0303214 15.0305C-0.165553 16.2283 0.608083 17.3646 1.75829 17.5686Z" fill="#FFBFED"/>
<path d="M4.19511 34.4718C3.99799 35.6681 2.90759 36.4723 1.75829 36.2685C0.608083 36.0645 -0.165553 34.9281 0.0303214 33.7304L2.11295 34.0997C0.0303215 33.7304 0.0304697 33.7295 0.0306266 33.7285L0.0309839 33.7263L0.0318554 33.7211L0.0342358 33.7069L0.0416119 33.6644C0.047716 33.6298 0.0562331 33.5828 0.0673618 33.5243C0.0896102 33.4072 0.122351 33.2437 0.16719 33.0403C0.256751 32.634 0.395245 32.0656 0.595875 31.3885C0.994752 30.0424 1.65136 28.2255 2.6835 26.3887C4.74908 22.7127 8.49836 18.6998 14.7886 18.6998C20.7914 18.6998 25.2789 22.4297 29.092 25.599L29.3098 25.7799C33.3951 29.1734 36.7966 31.8997 41.1962 31.8997C45.5958 31.8997 48.9973 29.1734 53.0826 25.7799L53.3004 25.599C57.1135 22.4297 61.601 18.6998 67.6038 18.6998C73.6066 18.6998 78.0941 22.4297 81.9073 25.599L82.125 25.7799C86.2103 29.1734 89.6118 31.8997 94.0114 31.8997C98.411 31.8997 101.813 29.1734 105.898 25.7799L106.116 25.599C109.929 22.4297 114.416 18.6998 120.419 18.6998C126.677 18.6998 130.612 22.6734 132.87 26.3038C134.003 28.126 134.764 29.9312 135.242 31.2718C135.482 31.9457 135.654 32.5115 135.767 32.9158C135.824 33.1181 135.867 33.2807 135.896 33.397C135.91 33.4551 135.921 33.5017 135.929 33.5359L135.939 33.578L135.942 33.5919L135.944 33.597L135.944 33.5991C135.944 33.6 135.945 33.6009 133.887 34.0997L135.945 33.6009C136.209 34.7843 135.502 35.9669 134.366 36.2424C133.231 36.5175 132.096 35.7836 131.83 34.6026L131.83 34.6018L131.83 34.6008L131.829 34.5985L131.827 34.5877C131.823 34.572 131.816 34.5445 131.807 34.5059C131.788 34.4288 131.756 34.3078 131.712 34.1493C131.623 33.8317 131.482 33.3662 131.281 32.8026C130.877 31.6682 130.243 30.1735 129.324 28.6957C127.477 25.7261 124.678 23.0998 120.419 23.0998C116.019 23.0998 112.618 25.8261 108.533 29.2196L108.315 29.4005C106.144 31.2052 103.754 33.1916 100.99 34.5676C98.8999 35.6081 96.5962 36.2997 94.0114 36.2997C91.4151 36.2997 89.1022 35.6019 87.0048 34.5536C84.2529 33.1781 81.8719 31.1991 79.708 29.4006L79.4902 29.2196C75.405 25.8261 72.0034 23.0998 67.6038 23.0998C63.2042 23.0998 59.8027 25.8261 55.7174 29.2196L55.4996 29.4006C53.356 31.1822 50.9993 33.141 48.28 34.5148C46.1622 35.5847 43.8244 36.2997 41.1962 36.2997C38.5563 36.2997 36.2095 35.5783 34.0843 34.5005C31.3769 33.1275 29.029 31.1761 26.8928 29.4006L26.675 29.2196C22.5897 25.8261 19.1882 23.0998 14.7886 23.0998C10.5618 23.0998 7.97324 25.6869 6.33027 28.6108C5.50812 30.074 4.96776 31.557 4.63324 32.6859C4.46717 33.2463 4.35486 33.7091 4.28529 34.0247C4.25056 34.1823 4.22666 34.3023 4.21215 34.3787C4.2049 34.4168 4.20002 34.4439 4.19731 34.4593L4.19532 34.4706L4.19511 34.4718Z" fill="#FFBFED"/>
<path d="M4.19532 53.1704L4.19522 53.171C3.99841 54.3676 2.90781 55.1721 1.75829 54.9683C0.608083 54.7643 -0.165553 53.628 0.0303214 52.4302L2.11295 52.7995C0.0303215 52.4302 0.0304697 52.4293 0.0306266 52.4283L0.0309839 52.4262L0.0318554 52.4209L0.0342358 52.4068L0.0416119 52.3642C0.047716 52.3296 0.0562331 52.2826 0.0673618 52.2241C0.0896102 52.107 0.122351 51.9435 0.16719 51.7401C0.256751 51.3338 0.395245 50.7654 0.595875 50.0884C0.994752 48.7423 1.65136 46.9253 2.6835 45.0885C4.74908 41.4125 8.49836 37.3997 14.7886 37.3997C20.7914 37.3997 25.2789 41.1295 29.092 44.2988L29.3098 44.4797C33.3951 47.8733 36.7966 50.5995 41.1962 50.5995C45.5958 50.5995 48.9973 47.8733 53.0826 44.4797L53.3004 44.2988C57.1135 41.1295 61.601 37.3997 67.6038 37.3997C73.6066 37.3997 78.0941 41.1295 81.9073 44.2988L82.125 44.4797C86.2103 47.8733 89.6118 50.5995 94.0114 50.5995C98.411 50.5995 101.813 47.8733 105.898 44.4797L106.116 44.2988C109.929 41.1295 114.416 37.3997 120.419 37.3997C126.677 37.3997 130.612 41.3733 132.87 45.0037C134.003 46.8258 134.764 48.6311 135.242 49.9717C135.482 50.6455 135.654 51.2113 135.767 51.6156C135.824 51.818 135.867 51.9806 135.896 52.0968C135.91 52.1549 135.921 52.2015 135.929 52.2358L135.939 52.2778L135.942 52.2917L135.944 52.2968L135.944 52.2989C135.944 52.2998 135.945 52.3007 133.887 52.7995L135.945 52.3007C136.209 53.4841 135.502 54.6667 134.366 54.9422C133.231 55.2174 132.096 54.4834 131.83 53.3024L131.83 53.3016L131.83 53.3007L131.829 53.2983L131.827 53.2875C131.825 53.2804 131.823 53.2709 131.82 53.2591C131.816 53.2447 131.812 53.2269 131.807 53.2058C131.788 53.1287 131.756 53.0077 131.712 52.8491C131.623 52.5315 131.482 52.066 131.281 51.5024C130.877 50.3681 130.243 48.8733 129.324 47.3955C127.477 44.426 124.678 41.7996 120.419 41.7996C116.019 41.7996 112.618 44.5259 108.533 47.9194L108.315 48.1004C106.144 49.905 103.754 51.8914 100.99 53.2674C98.8999 54.308 96.5962 54.9995 94.0114 54.9995C91.4151 54.9995 89.1022 54.3018 87.0048 53.2534C84.2529 51.8779 81.8719 49.8989 79.708 48.1004L79.4902 47.9194C75.405 44.5259 72.0034 41.7996 67.6038 41.7996C63.2042 41.7996 59.8027 44.5259 55.7174 47.9194L55.4996 48.1004C53.356 49.8821 50.9993 51.8409 48.28 53.2146C46.1622 54.2845 43.8244 54.9995 41.1962 54.9995C38.5563 54.9995 36.2095 54.2782 34.0843 53.2004C31.3769 51.8274 29.029 49.8759 26.8928 48.1004L26.675 47.9194C22.5897 44.5259 19.1882 41.7996 14.7886 41.7996C10.5618 41.7996 7.97324 44.3867 6.33027 47.3107C5.50812 48.7738 4.96776 50.2568 4.63324 51.3857C4.46717 51.9462 4.35486 52.409 4.28529 52.7246C4.25056 52.8821 4.22666 53.0022 4.21215 53.0785C4.2049 53.1166 4.20002 53.1438 4.19731 53.1591L4.19532 53.1704Z" fill="#FFBFED"/>
<defs>
<filter id="filter0_d_127_12" x="83" y="18" width="433" height="463" filterUnits="userSpaceOnUse" color-interpolation-filters="sRGB">
<feFlood flood-opacity="0" result="BackgroundImageFix"/>
<feColorMatrix in="SourceAlpha" type="matrix" values="0 0 0 0 0 0 0 0 0 0 0 0 0 0 0 0 0 0 127 0" result="hardAlpha"/>
<feOffset/>
<feGaussianBlur stdDeviation="10"/>
<feComposite in2="hardAlpha" operator="out"/>
<feColorMatrix type="matrix" values="0 0 0 0 0 0 0 0 0 0 0 0 0 0 0 0 0 0 0.07 0"/>
<feBlend mode="normal" in2="BackgroundImageFix" result="effect1_dropShadow_127_12"/>
<feBlend mode="normal" in="SourceGraphic" in2="effect1_dropShadow_127_12" result="shape"/>
</filter>
<linearGradient id="paint0_linear_127_12" x1="299.5" y1="38" x2="299.5" y2="461" gradientUnits="userSpaceOnUse">
<stop stop-color="#F86B9E"/>
<stop offset="1" stop-color="#CD91E9"/>
</linearGradient>
</defs>
</svg>
