				<svg xmlns="http://www.w3.org/2000/svg" width="136" height="55" viewBox="0 0 136 55" fill="none">
								<path d="M1.75829 17.5686C2.90759 17.7724 3.99799 16.9682 4.19511 15.772L4.19532 15.7708L4.19731 15.7594C4.20002 15.7441 4.2049 15.717 4.21215 15.6788C4.22666 15.6025 4.25056 15.4824 4.28529 15.3249C4.35486 15.0093 4.46717 14.5465 4.63324 13.9861C4.96776 12.8572 5.50812 11.3741 6.33027 9.911C7.97324 6.98708 10.5618 4.39996 14.7886 4.39996C19.1882 4.39996 22.5897 7.12623 26.675 10.5198L26.8928 10.7007C29.029 12.4763 31.3769 14.4277 34.0843 15.8007C36.2095 16.8785 38.5563 17.5998 41.1962 17.5998C43.8244 17.5998 46.1622 16.8848 48.28 15.8149C50.9993 14.4412 53.356 12.4824 55.4996 10.7007L55.7174 10.5198C59.8027 7.12623 63.2042 4.39996 67.6038 4.39996C72.0034 4.39996 75.405 7.12623 79.4902 10.5198L79.708 10.7007C81.8719 12.4992 84.2529 14.4783 87.0048 15.8537C89.1022 16.9021 91.4151 17.5998 94.0114 17.5998C96.5962 17.5998 98.8999 16.9083 100.99 15.8678C103.754 14.4917 106.144 12.5054 108.315 10.7007L108.533 10.5198C112.618 7.12623 116.019 4.39996 120.419 4.39996C124.678 4.39996 127.477 7.02629 129.324 9.99583C130.243 11.4736 130.877 12.9684 131.281 14.1028C131.482 14.6664 131.623 15.1319 131.712 15.4494C131.756 15.608 131.788 15.729 131.807 15.8061C131.816 15.8447 131.823 15.8722 131.827 15.8879L131.829 15.8987L131.83 15.901L131.83 15.902L131.83 15.9028C132.096 17.0837 133.231 17.8177 134.366 17.5425C135.502 17.2671 136.209 16.0844 135.945 14.9011L133.887 15.3999C135.945 14.9011 135.944 14.9002 135.944 14.8993L135.944 14.8971L135.942 14.892L135.939 14.8781L135.929 14.8361C135.921 14.8019 135.91 14.7553 135.896 14.6971C135.867 14.5809 135.824 14.4183 135.767 14.2159C135.654 13.8116 135.482 13.2459 135.242 12.572C134.764 11.2314 134.003 9.42617 132.87 7.60401C130.612 3.97361 126.677 0 120.419 0C114.416 0 109.929 3.72983 106.116 6.89912L105.898 7.08008C101.813 10.4736 98.411 13.1999 94.0114 13.1999C89.6118 13.1999 86.2103 10.4736 82.125 7.08008L81.9073 6.89912C78.0941 3.72983 73.6066 0 67.6038 0C61.601 0 57.1135 3.72982 53.3004 6.89912L53.0826 7.08008C48.9973 10.4736 45.5958 13.1999 41.1962 13.1999C36.7966 13.1999 33.3951 10.4736 29.3098 7.08008L29.092 6.89912C25.2789 3.72982 20.7914 0 14.7886 0C8.49836 0 4.74908 4.01283 2.6835 7.68885C1.65136 9.52568 0.994752 11.3426 0.595875 12.6887C0.395245 13.3658 0.256751 13.9342 0.16719 14.3405C0.122351 14.5439 0.0896102 14.7074 0.0673618 14.8244C0.0562331 14.883 0.047716 14.9299 0.0416119 14.9646L0.0342358 15.0071L0.0318554 15.0212L0.0309839 15.0265L0.0306266 15.0287C0.0304697 15.0296 0.0303215 15.0305 2.11295 15.3999L0.0303214 15.0305C-0.165553 16.2283 0.608083 17.3646 1.75829 17.5686Z" fill="#FFBFED" />
								<path d="M4.19511 34.4718C3.99799 35.6681 2.90759 36.4723 1.75829 36.2685C0.608083 36.0645 -0.165553 34.9281 0.0303214 33.7304L2.11295 34.0997C0.0303215 33.7304 0.0304697 33.7295 0.0306266 33.7285L0.0309839 33.7263L0.0318554 33.7211L0.0342358 33.7069L0.0416119 33.6644C0.047716 33.6298 0.0562331 33.5828 0.0673618 33.5243C0.0896102 33.4072 0.122351 33.2437 0.16719 33.0403C0.256751 32.634 0.395245 32.0656 0.595875 31.3885C0.994752 30.0424 1.65136 28.2255 2.6835 26.3887C4.74908 22.7127 8.49836 18.6998 14.7886 18.6998C20.7914 18.6998 25.2789 22.4297 29.092 25.599L29.3098 25.7799C33.3951 29.1734 36.7966 31.8997 41.1962 31.8997C45.5958 31.8997 48.9973 29.1734 53.0826 25.7799L53.3004 25.599C57.1135 22.4297 61.601 18.6998 67.6038 18.6998C73.6066 18.6998 78.0941 22.4297 81.9073 25.599L82.125 25.7799C86.2103 29.1734 89.6118 31.8997 94.0114 31.8997C98.411 31.8997 101.813 29.1734 105.898 25.7799L106.116 25.599C109.929 22.4297 114.416 18.6998 120.419 18.6998C126.677 18.6998 130.612 22.6734 132.87 26.3038C134.003 28.126 134.764 29.9312 135.242 31.2718C135.482 31.9457 135.654 32.5115 135.767 32.9158C135.824 33.1181 135.867 33.2807 135.896 33.397C135.91 33.4551 135.921 33.5017 135.929 33.5359L135.939 33.578L135.942 33.5919L135.944 33.597L135.944 33.5991C135.944 33.6 135.945 33.6009 133.887 34.0997L135.945 33.6009C136.209 34.7843 135.502 35.9669 134.366 36.2424C133.231 36.5175 132.096 35.7836 131.83 34.6026L131.83 34.6018L131.83 34.6008L131.829 34.5985L131.827 34.5877C131.823 34.572 131.816 34.5445 131.807 34.5059C131.788 34.4288 131.756 34.3078 131.712 34.1493C131.623 33.8317 131.482 33.3662 131.281 32.8026C130.877 31.6682 130.243 30.1735 129.324 28.6957C127.477 25.7261 124.678 23.0998 120.419 23.0998C116.019 23.0998 112.618 25.8261 108.533 29.2196L108.315 29.4005C106.144 31.2052 103.754 33.1916 100.99 34.5676C98.8999 35.6081 96.5962 36.2997 94.0114 36.2997C91.4151 36.2997 89.1022 35.6019 87.0048 34.5536C84.2529 33.1781 81.8719 31.1991 79.708 29.4006L79.4902 29.2196C75.405 25.8261 72.0034 23.0998 67.6038 23.0998C63.2042 23.0998 59.8027 25.8261 55.7174 29.2196L55.4996 29.4006C53.356 31.1822 50.9993 33.141 48.28 34.5148C46.1622 35.5847 43.8244 36.2997 41.1962 36.2997C38.5563 36.2997 36.2095 35.5783 34.0843 34.5005C31.3769 33.1275 29.029 31.1761 26.8928 29.4006L26.675 29.2196C22.5897 25.8261 19.1882 23.0998 14.7886 23.0998C10.5618 23.0998 7.97324 25.6869 6.33027 28.6108C5.50812 30.074 4.96776 31.557 4.63324 32.6859C4.46717 33.2463 4.35486 33.7091 4.28529 34.0247C4.25056 34.1823 4.22666 34.3023 4.21215 34.3787C4.2049 34.4168 4.20002 34.4439 4.19731 34.4593L4.19532 34.4706L4.19511 34.4718Z" fill="#FFBFED" />
								<path d="M4.19532 53.1704L4.19522 53.171C3.99841 54.3676 2.90781 55.1721 1.75829 54.9683C0.608083 54.7643 -0.165553 53.628 0.0303214 52.4302L2.11295 52.7995C0.0303215 52.4302 0.0304697 52.4293 0.0306266 52.4283L0.0309839 52.4262L0.0318554 52.4209L0.0342358 52.4068L0.0416119 52.3642C0.047716 52.3296 0.0562331 52.2826 0.0673618 52.2241C0.0896102 52.107 0.122351 51.9435 0.16719 51.7401C0.256751 51.3338 0.395245 50.7654 0.595875 50.0884C0.994752 48.7423 1.65136 46.9253 2.6835 45.0885C4.74908 41.4125 8.49836 37.3997 14.7886 37.3997C20.7914 37.3997 25.2789 41.1295 29.092 44.2988L29.3098 44.4797C33.3951 47.8733 36.7966 50.5995 41.1962 50.5995C45.5958 50.5995 48.9973 47.8733 53.0826 44.4797L53.3004 44.2988C57.1135 41.1295 61.601 37.3997 67.6038 37.3997C73.6066 37.3997 78.0941 41.1295 81.9073 44.2988L82.125 44.4797C86.2103 47.8733 89.6118 50.5995 94.0114 50.5995C98.411 50.5995 101.813 47.8733 105.898 44.4797L106.116 44.2988C109.929 41.1295 114.416 37.3997 120.419 37.3997C126.677 37.3997 130.612 41.3733 132.87 45.0037C134.003 46.8258 134.764 48.6311 135.242 49.9717C135.482 50.6455 135.654 51.2113 135.767 51.6156C135.824 51.818 135.867 51.9806 135.896 52.0968C135.91 52.1549 135.921 52.2015 135.929 52.2358L135.939 52.2778L135.942 52.2917L135.944 52.2968L135.944 52.2989C135.944 52.2998 135.945 52.3007 133.887 52.7995L135.945 52.3007C136.209 53.4841 135.502 54.6667 134.366 54.9422C133.231 55.2174 132.096 54.4834 131.83 53.3024L131.83 53.3016L131.83 53.3007L131.829 53.2983L131.827 53.2875C131.825 53.2804 131.823 53.2709 131.82 53.2591C131.816 53.2447 131.812 53.2269 131.807 53.2058C131.788 53.1287 131.756 53.0077 131.712 52.8491C131.623 52.5315 131.482 52.066 131.281 51.5024C130.877 50.3681 130.243 48.8733 129.324 47.3955C127.477 44.426 124.678 41.7996 120.419 41.7996C116.019 41.7996 112.618 44.5259 108.533 47.9194L108.315 48.1004C106.144 49.905 103.754 51.8914 100.99 53.2674C98.8999 54.308 96.5962 54.9995 94.0114 54.9995C91.4151 54.9995 89.1022 54.3018 87.0048 53.2534C84.2529 51.8779 81.8719 49.8989 79.708 48.1004L79.4902 47.9194C75.405 44.5259 72.0034 41.7996 67.6038 41.7996C63.2042 41.7996 59.8027 44.5259 55.7174 47.9194L55.4996 48.1004C53.356 49.8821 50.9993 51.8409 48.28 53.2146C46.1622 54.2845 43.8244 54.9995 41.1962 54.9995C38.5563 54.9995 36.2095 54.2782 34.0843 53.2004C31.3769 51.8274 29.029 49.8759 26.8928 48.1004L26.675 47.9194C22.5897 44.5259 19.1882 41.7996 14.7886 41.7996C10.5618 41.7996 7.97324 44.3867 6.33027 47.3107C5.50812 48.7738 4.96776 50.2568 4.63324 51.3857C4.46717 51.9462 4.35486 52.409 4.28529 52.7246C4.25056 52.8821 4.22666 53.0022 4.21215 53.0785C4.2049 53.1166 4.20002 53.1438 4.19731 53.1591L4.19532 53.1704Z" fill="#FFBFED" />
							</svg>